####
#
# OBJ File Generated by Meshlab
#
####
# Object test2.obj
#
# Vertices: 167
# Faces: 50
#
####
vn -0.998134 0.036843 0.048695
v -0.000141 0.209863 0.209800
vn -0.532124 0.846611 0.009690
v 0.000756 0.210752 0.181857
vn -0.435993 0.899926 0.006616
v 0.001703 0.211441 0.152629
vn -0.752167 0.658970 0.001999
v -0.000907 0.210419 0.119592
vn -0.206683 0.978376 -0.007876
v 0.001260 0.210912 0.091460
vn -0.418815 0.907994 -0.011858
v 0.001285 0.210679 0.061964
vn 0.000000 0.000000 0.000000
v 0.001145 0.209463 0.031224
vn 0.000000 0.000000 0.000000
v 0.000664 0.181222 0.210980
vn 0.000000 0.000000 0.000000
v 0.002206 0.181811 0.183202
vn 0.000000 0.000000 0.000000
v 0.004179 0.183440 0.155666
vn 0.000000 0.000000 0.000000
v 0.001719 0.182233 0.122441
vn 0.000000 0.000000 0.000000
v 0.002581 0.181884 0.093255
vn 0.000000 0.000000 0.000000
v 0.002869 0.182237 0.063669
vn 0.000000 0.000000 0.000000
v 0.000308 0.180329 0.030397
vn -0.566575 0.022605 0.823700
v 0.002884 0.152325 0.213460
vn 0.000000 0.000000 0.000000
v 0.001763 0.151358 0.183357
vn 0.000000 0.000000 0.000000
v 0.004681 0.153355 0.156225
vn 0.000000 0.000000 0.000000
v 0.002988 0.152950 0.124552
vn 0.000000 0.000000 0.000000
v 0.003394 0.152948 0.094424
vn 0.000000 0.000000 0.000000
v 0.001518 0.152116 0.062686
vn 0.000000 0.000000 0.000000
v 0.001574 0.151632 0.031307
vn -0.833301 0.003525 0.552808
v 0.001962 0.121760 0.213664
vn 0.000000 0.000000 0.000000
v 0.002124 0.122035 0.184151
vn 0.000000 0.000000 0.000000
v 0.002522 0.122138 0.154689
vn 0.000000 0.000000 0.000000
v 0.003571 0.122683 0.125933
vn 0.000000 0.000000 0.000000
v 0.004695 0.122990 0.096181
vn 0.000000 0.000000 0.000000
v 0.000781 0.120844 0.030526
vn 0.000000 0.000000 0.000000
v 0.003459 0.122382 0.064824
vn -0.547161 -0.015436 0.836885
v 0.002734 0.091835 0.213617
vn 0.000000 0.000000 0.000000
v 0.003755 0.092408 0.185506
vn 0.000000 0.000000 0.000000
v 0.002488 0.092157 0.154525
vn 0.000000 0.000000 0.000000
v 0.002192 0.092174 0.124542
vn 0.000000 0.000000 0.000000
v 0.001119 0.091049 0.092523
vn 0.000000 0.000000 0.000000
v -0.000574 0.090283 0.059943
vn 0.000000 0.000000 0.000000
v 0.002672 0.091911 0.033788
vn -0.658955 -0.012879 0.752072
v 0.001604 0.061313 0.212315
vn 0.000000 0.000000 0.000000
v 0.000780 0.060478 0.182484
vn 0.000000 0.000000 0.000000
v 0.002759 0.061424 0.154673
vn 0.000000 0.000000 0.000000
v 0.002077 0.061230 0.123722
vn 0.000000 0.000000 0.000000
v 0.000246 0.059760 0.092582
vn 0.000000 0.000000 0.000000
v 0.004000 0.062377 0.065821
vn 0.000000 0.000000 0.000000
v 0.001785 0.061052 0.032866
vn -0.922651 0.004122 0.385615
v -0.001223 0.029919 0.209292
vn 0.000000 0.000000 0.000000
v -0.002209 0.028664 0.179317
vn 0.000000 0.000000 0.000000
v -0.001391 0.029197 0.150334
vn 0.000000 0.000000 0.000000
v 0.000938 0.030348 0.122499
vn 0.000000 0.000000 0.000000
v -0.001508 0.028545 0.090088
vn 0.000000 0.000000 0.000000
v 0.000593 0.030694 0.061636
vn 0.000000 0.000000 0.000000
v -0.001244 0.028625 0.028551
vn -0.023847 0.953671 -0.299903
v 0.031486 0.210516 0.002383
vn -0.010929 0.692413 -0.721419
v 0.059070 0.209627 -0.002133
vn -0.002580 0.890476 -0.455022
v 0.092358 0.212045 0.002403
vn 0.000000 0.000000 0.000000
v 0.122070 0.210879 0.001607
vn 0.002281 0.830025 -0.557721
v 0.151642 0.211245 0.000652
vn 0.002666 0.825852 -0.563880
v 0.180026 0.209549 -0.001739
vn 0.038176 0.043850 -0.998308
v 0.208311 0.209069 -0.002308
vn 0.000000 0.000000 0.000000
v 0.031704 0.181333 0.001954
vn 0.000000 0.000000 0.000000
v 0.061624 0.182342 0.001089
vn 0.000000 0.000000 0.000000
v 0.093949 0.183288 0.002854
vn 0.000000 0.000000 0.000000
v 0.124265 0.182742 0.002512
vn 0.000000 0.000000 0.000000
v 0.155566 0.183669 0.005007
vn 0.000000 0.000000 0.000000
v 0.182746 0.181800 0.000936
vn 0.860347 0.035364 -0.508480
v 0.209919 0.180409 -0.001588
vn 0.000000 0.000000 0.000000
v 0.031707 0.151798 0.001207
vn 0.000000 0.000000 0.000000
v 0.064488 0.153200 0.004724
vn 0.000000 0.000000 0.000000
v 0.095104 0.153550 0.004354
vn 0.000000 0.000000 0.000000
v 0.124231 0.152882 0.002397
vn 0.000000 0.000000 0.000000
v 0.156245 0.153720 0.005335
vn 0.000000 0.000000 0.000000
v 0.184940 0.153242 0.004495
vn 0.000000 0.000000 0.000000
v 0.211315 0.151225 0.000765
vn 0.000000 0.000000 0.000000
v 0.029818 0.121076 -0.001216
vn 0.000000 0.000000 0.000000
v 0.063501 0.122374 0.002842
vn 0.000000 0.000000 0.000000
v 0.096260 0.124090 0.005887
vn 0.000000 0.000000 0.000000
v 0.125725 0.123462 0.003897
vn 0.000000 0.000000 0.000000
v 0.155286 0.123005 0.003769
vn 0.000000 0.000000 0.000000
v 0.184695 0.123224 0.003393
vn 0.998303 0.056352 0.014661
v 0.213180 0.121685 0.002049
vn 0.000000 0.000000 0.000000
v 0.032168 0.091380 0.002058
vn 0.000000 0.000000 0.000000
v 0.062310 0.090997 0.000663
vn 0.000000 0.000000 0.000000
v 0.094297 0.092248 0.002680
vn 0.000000 0.000000 0.000000
v 0.126039 0.093656 0.004505
vn 0.000000 0.000000 0.000000
v 0.155475 0.093509 0.005389
vn 0.000000 0.000000 0.000000
v 0.184545 0.092324 0.002501
vn 4.677405 -0.022793 -4.126770
v 0.211269 0.090386 -0.000336
vn 0.000000 0.000000 0.000000
v 0.029697 0.059653 -0.001166
vn 0.000000 0.000000 0.000000
v 0.063143 0.061385 0.002337
vn 0.000000 0.000000 0.000000
v 0.093307 0.061492 0.001908
vn 0.000000 0.000000 0.000000
v 0.125369 0.063040 0.005358
vn 0.000000 0.000000 0.000000
v 0.153133 0.060946 0.000551
vn 0.000000 0.000000 0.000000
v 0.181741 0.060206 -0.000355
vn 0.604679 -0.001043 -0.796469
v 0.210620 0.059927 -0.000897
vn 0.000000 0.000000 0.000000
v 0.030055 0.029682 0.000378
vn 0.000000 0.000000 0.000000
v 0.059606 0.028346 -0.002237
vn 0.000000 0.000000 0.000000
v 0.092857 0.030759 0.002095
vn 0.000000 0.000000 0.000000
v 0.122003 0.029557 -0.000018
vn 0.000000 0.000000 0.000000
v 0.152745 0.030341 0.001245
vn 0.000000 0.000000 0.000000
v 0.180361 0.029077 -0.001261
vn 0.000000 0.000000 0.000000
v 0.207826 0.028535 -0.002420
vn -0.035145 -0.856200 0.515448
v 0.027672 -0.000440 0.208985
vn 0.000000 0.000000 0.000000
v 0.030550 0.000845 0.182353
vn 0.000000 0.000000 0.000000
v 0.030601 0.001183 0.151927
vn 0.000000 0.000000 0.000000
v 0.028485 -0.001744 0.119235
vn 0.000000 0.000000 0.000000
v 0.031277 0.001188 0.092369
vn 0.000000 0.000000 0.000000
v 0.027693 -0.002077 0.057046
vn 0.000000 0.000000 0.000000
v 0.027714 -0.002036 0.026647
vn -0.021196 -0.932024 0.361777
v 0.058573 -0.001461 0.209395
vn -0.009175 -0.999805 0.017496
v 0.058117 -0.002432 0.179668
vn 0.000000 0.000000 0.000000
v 0.062415 0.001312 0.154481
vn 0.000000 0.000000 0.000000
v 0.059809 0.000244 0.122157
vn 0.000000 0.000000 0.000000
v 0.061741 -0.000695 0.091741
vn 0.000000 0.000000 0.000000
v 0.058368 -0.001561 0.058226
vn 0.000000 0.000000 0.000000
v 0.060747 -0.000846 0.030565
vn -0.028887 -0.791465 0.610531
v 0.090300 -0.000553 0.212083
vn 0.000000 0.000000 0.000000
v 0.091325 -0.000638 0.183557
vn 0.000000 0.000000 0.000000
v 0.091904 0.000234 0.153238
vn 0.000000 0.000000 0.000000
v 0.090240 -0.000962 0.121090
vn 0.000000 0.000000 0.000000
v 0.093673 0.002181 0.095212
vn 0.000000 0.000000 0.000000
v 0.089205 -0.002433 0.057764
vn 0.000000 0.000000 0.000000
v 0.092832 0.001715 0.033262
vn -0.016485 -0.695963 0.717888
v 0.121500 -0.001279 0.212615
vn 0.000000 0.000000 0.000000
v 0.123221 0.000598 0.185069
vn 0.000000 0.000000 0.000000
v 0.123332 0.000608 0.155686
vn 0.000000 0.000000 0.000000
v 0.122546 -0.000172 0.123286
vn 0.000000 0.000000 0.000000
v 0.122283 -0.000407 0.092647
vn 0.000000 0.000000 0.000000
v 0.123336 0.001447 0.063915
vn 0.000000 0.000000 0.000000
v 0.121442 -0.000839 0.030615
vn 0.016857 -0.999392 0.030526
v 0.151496 -0.001361 0.213219
vn 0.000000 0.000000 0.000000
v 0.154535 0.002392 0.186860
vn 0.000000 0.000000 0.000000
v 0.153531 0.000287 0.154700
vn 0.000000 0.000000 0.000000
v 0.152886 -0.000332 0.123877
vn 0.000000 0.000000 0.000000
v 0.152418 0.000172 0.092934
vn 0.000000 0.000000 0.000000
v 0.150259 -0.002297 0.059106
vn 0.000000 0.000000 0.000000
v 0.151702 -0.000123 0.031240
vn 0.000000 0.000000 0.000000
v 0.182640 -0.000452 0.184094
vn 0.000000 0.000000 0.000000
v 0.182822 -0.000233 0.153993
vn 0.000000 0.000000 0.000000
v 0.182642 -0.000069 0.123760
vn 0.000000 0.000000 0.000000
v 0.181470 -0.000146 0.092521
vn 0.000000 0.000000 0.000000
v 0.180340 -0.001532 0.059108
vn 0.000000 0.000000 0.000000
v 0.178173 -0.002357 0.026817
vn 0.074912 -0.995915 0.050422
v 0.212017 0.000933 0.184716
vn 0.000000 0.000000 0.000000
v 0.210379 -0.000115 0.153154
vn 0.574687 -0.818370 0.002526
v 0.209488 -0.002509 0.120491
vn 0.836475 -0.547498 -0.023585
v 0.209198 -0.001623 0.089429
vn 0.000000 0.000000 0.000000
v 0.207519 -0.002612 0.057747
vn 0.545236 -0.837465 -0.037027
v 0.205720 -0.004065 0.023702
vn -0.719332 -0.693615 0.038224
v -0.002546 -0.000763 0.206375
vn 0.000000 0.000000 0.000000
v -0.000700 0.000413 0.180125
vn 0.000000 0.000000 0.000000
v -0.000958 0.000567 0.150338
vn 0.000000 0.000000 0.000000
v -0.000261 0.000010 0.121117
vn 0.000000 0.000000 0.000000
v -0.002642 -0.001131 0.088195
vn -0.714783 -0.699237 -0.012358
v -0.003293 -0.001947 0.056851
vn -0.714426 -0.695883 -0.073093
v -0.002118 -0.001333 0.027586
vn -0.096236 -0.688014 -0.719288
v 0.027373 -0.001268 -0.003089
vn -0.027087 -0.699568 -0.714053
v 0.056912 -0.002461 -0.004697
vn 0.000000 0.000000 0.000000
v 0.089542 -0.000602 -0.001095
vn 0.000000 0.000000 0.000000
v 0.120463 -0.000325 -0.000347
vn 0.000000 0.000000 0.000000
v 0.148843 -0.001624 -0.001960
vn 0.000000 0.000000 0.000000
v 0.178033 -0.001456 -0.002387
vn 0.055045 -0.666715 -0.743278
v 0.205478 -0.002036 -0.004720
vn -0.701446 0.091769 -0.706789
v -0.002471 0.208088 -0.002638
vn 0.000000 0.000000 0.000000
v -0.000726 0.179279 -0.001434
vn 0.000000 0.000000 0.000000
v 0.000689 0.150249 -0.000712
vn 0.000000 0.000000 0.000000
v 0.003286 0.121872 0.003220
vn 0.000000 0.000000 0.000000
v 0.002791 0.091211 0.002359
vn 0.000000 0.000000 0.000000
v 0.001381 0.060316 0.000247
vn 0.000000 0.000000 0.000000
v 0.001050 0.029663 0.001339
vn -0.614702 -0.513427 -0.598778
v 0.000167 0.001968 -0.000116
# 167 vertices, 0 vertices normals

f 151//151 152//152 154//154
f 167//167 153//153 152//152
f 152//152 153//153 154//154
f 52//52 51//51 160//160
f 63//63 56//56 77//77
f 127//127 142//142 140//140
f 6//6 5//5 3//3
f 51//51 55//55 56//56
f 54//54 51//51 52//52
f 50//50 52//52 160//160
f 154//154 153//153 160//160
f 107//107 151//151 145//145
f 153//153 167//167 160//160
f 146//146 107//107 106//106
f 167//167 152//152 160//160
f 152//152 151//151 160//160
f 146//146 151//151 107//107
f 3//3 4//4 2//2
f 4//4 160//160 1//1
f 5//5 6//6 4//4
f 15//15 1//1 22//22
f 29//29 22//22 36//36
f 3//3 5//5 4//4
f 6//6 160//160 4//4
f 4//4 1//1 2//2
f 113//113 99//99 106//106
f 1//1 146//146 43//43
f 36//36 22//22 43//43
f 1//1 160//160 146//146
f 160//160 151//151 146//146
f 22//22 1//1 43//43
f 120//120 106//106 127//127
f 99//99 146//146 106//106
f 113//113 120//120 127//127
f 142//142 143//143 140//140
f 127//127 107//107 142//142
f 106//106 107//107 127//127
f 113//113 106//106 120//120
f 143//143 142//142 145//145
f 151//151 154//154 145//145
f 51//51 54//54 55//55
f 160//160 51//51 56//56
f 55//55 54//54 56//56
f 154//154 159//159 145//145
f 159//159 143//143 145//145
f 142//142 107//107 145//145
f 154//154 160//160 159//159
f 160//160 56//56 159//159
f 56//56 63//63 159//159
f 63//63 91//91 159//159
# 50 faces, 0 coords texture

# End of File
